<svg width="15" height="15" viewBox="0 0 15 15" fill="none" xmlns="http://www.w3.org/2000/svg">
<g clip-path="url(#clip0_1081_1628)">
<path fill-rule="evenodd" clip-rule="evenodd" d="M4.54031 10.26L4.35844 12.4491C4.3551 12.4872 4.36331 12.5255 4.382 12.559C4.40068 12.5924 4.42898 12.6195 4.46323 12.6367C4.49748 12.6538 4.5361 12.6603 4.57408 12.6553C4.61206 12.6503 4.64765 12.6339 4.67625 12.6084L6.74813 10.7672L7.30031 10.7794L7.5 10.7812C9.08906 10.7812 10.3941 10.3687 11.2688 9.67781C12.1031 9.01969 12.6562 8.02781 12.6562 6.5625C12.6562 5.09719 12.1031 4.10625 11.2688 3.44719C10.3941 2.75625 9.08906 2.34375 7.5 2.34375C5.91094 2.34375 4.60594 2.75625 3.73125 3.44719C2.89688 4.10625 2.34375 5.09719 2.34375 6.5625C2.34375 8.1075 2.95875 9.13313 3.88875 9.795L4.54031 10.26ZM5.61 13.6584L7.26938 12.1847C7.345 12.1866 7.42188 12.1875 7.5 12.1875C11.1244 12.1875 14.0625 10.3125 14.0625 6.5625C14.0625 2.8125 11.1244 0.9375 7.5 0.9375C3.87563 0.9375 0.9375 2.8125 0.9375 6.5625C0.9375 8.54719 1.76062 10.0069 3.07219 10.9406L2.95688 12.3319C2.93042 12.65 2.99988 12.9688 3.1563 13.247C3.31272 13.5253 3.54893 13.7504 3.83446 13.8931C4.11998 14.0359 4.44173 14.0898 4.75821 14.048C5.07468 14.0062 5.37137 13.8705 5.61 13.6584Z" fill="#C8F6D1"/>
</g>
<defs>
<clipPath id="clip0_1081_1628">
<rect width="15" height="15" fill="white"/>
</clipPath>
</defs>
</svg>
