<svg width="24" height="22" viewBox="0 0 24 22" fill="none" xmlns="http://www.w3.org/2000/svg">
<g clip-path="url(#clip0_1117_1217)">
<path d="M3.2 18.3331V19.0664H4.8V18.3331H3.2ZM11.2 18.3331V19.0664H12.8V18.3331H11.2ZM4.8 18.3331V17.5998H3.2V18.3331H4.8ZM11.2 17.5998V18.3331H12.8V17.5998H11.2ZM8 14.6664C8.84869 14.6664 9.66263 14.9755 10.2627 15.5256C10.8629 16.0757 11.2 16.8218 11.2 17.5998H12.8C12.8 16.4328 12.2943 15.3137 11.3941 14.4885C10.4939 13.6633 9.27304 13.1998 8 13.1998V14.6664ZM4.8 17.5998C4.8 16.8218 5.13714 16.0757 5.73726 15.5256C6.33737 14.9755 7.15131 14.6664 8 14.6664V13.1998C6.72696 13.1998 5.50606 13.6633 4.60589 14.4885C3.70571 15.3137 3.2 16.4328 3.2 17.5998H4.8ZM8 5.86644C7.15131 5.86644 6.33737 6.17549 5.73726 6.72559C5.13714 7.2757 4.8 8.0218 4.8 8.79977H6.4C6.4 8.41079 6.56857 8.03774 6.86863 7.76268C7.16869 7.48763 7.57565 7.33311 8 7.33311V5.86644ZM11.2 8.79977C11.2 8.0218 10.8629 7.2757 10.2627 6.72559C9.66263 6.17549 8.84869 5.86644 8 5.86644V7.33311C8.42435 7.33311 8.83131 7.48763 9.13137 7.76268C9.43143 8.03774 9.6 8.41079 9.6 8.79977H11.2ZM8 11.7331C8.84869 11.7331 9.66263 11.4241 10.2627 10.874C10.8629 10.3238 11.2 9.57774 11.2 8.79977H9.6C9.6 9.18876 9.43143 9.56181 9.13137 9.83686C8.83131 10.1119 8.42435 10.2664 8 10.2664V11.7331ZM8 10.2664C7.57565 10.2664 7.16869 10.1119 6.86863 9.83686C6.56857 9.56181 6.4 9.18876 6.4 8.79977H4.8C4.8 9.57774 5.13714 10.3238 5.73726 10.874C6.33737 11.4241 7.15131 11.7331 8 11.7331V10.2664ZM2.4 4.39977H21.6V2.93311H2.4V4.39977ZM22.4 5.13311V16.8664H24V5.13311H22.4ZM21.6 17.5998H2.4V19.0664H21.6V17.5998ZM1.6 16.8664V5.13311H0V16.8664H1.6ZM2.4 17.5998C2.18783 17.5998 1.98434 17.5225 1.83431 17.385C1.68429 17.2475 1.6 17.0609 1.6 16.8664H0C0 17.4499 0.252856 18.0095 0.702944 18.4221C1.15303 18.8347 1.76348 19.0664 2.4 19.0664V17.5998ZM22.4 16.8664C22.4 17.0609 22.3157 17.2475 22.1657 17.385C22.0157 17.5225 21.8122 17.5998 21.6 17.5998V19.0664C22.2365 19.0664 22.847 18.8347 23.2971 18.4221C23.7471 18.0095 24 17.4499 24 16.8664H22.4ZM21.6 4.39977C21.8122 4.39977 22.0157 4.47703 22.1657 4.61456C22.3157 4.75209 22.4 4.93861 22.4 5.13311H24C24 4.54963 23.7471 3.99005 23.2971 3.57747C22.847 3.16489 22.2365 2.93311 21.6 2.93311V4.39977ZM2.4 2.93311C1.76348 2.93311 1.15303 3.16489 0.702944 3.57747C0.252856 3.99005 0 4.54963 0 5.13311H1.6C1.6 4.93861 1.68429 4.75209 1.83431 4.61456C1.98434 4.47703 2.18783 4.39977 2.4 4.39977V2.93311ZM14.4 8.79977H19.2V7.33311H14.4V8.79977ZM14.4 13.1998H19.2V11.7331H14.4V13.1998Z" fill="white"/>
</g>
<defs>
<clipPath id="clip0_1117_1217">
<rect width="24" height="22" fill="white"/>
</clipPath>
</defs>
</svg>
