<svg width="15" height="15" viewBox="0 0 15 15" fill="none" xmlns="http://www.w3.org/2000/svg">
<path d="M7.5 3.43749L7.1625 3.76249C7.20623 3.80786 7.25865 3.84394 7.31664 3.86859C7.37463 3.89324 7.43699 3.90594 7.5 3.90594C7.56301 3.90594 7.62537 3.89324 7.68336 3.86859C7.74135 3.84394 7.79377 3.80786 7.8375 3.76249L7.5 3.43749ZM4.37562 10.2625C4.27948 10.1834 4.15587 10.1458 4.03198 10.1579C3.90809 10.1699 3.79407 10.2307 3.715 10.3269C3.63593 10.423 3.59829 10.5466 3.61037 10.6705C3.62244 10.7944 3.68323 10.9084 3.77938 10.9875L4.37562 10.2625ZM1.46375 8.38187C1.4933 8.43587 1.53319 8.48353 1.58116 8.52212C1.62912 8.56071 1.68422 8.58947 1.7433 8.60676C1.80238 8.62406 1.86429 8.62955 1.92549 8.62292C1.9867 8.61628 2.04599 8.59766 2.1 8.56812C2.15401 8.53857 2.20166 8.49867 2.24025 8.45071C2.27884 8.40274 2.3076 8.34765 2.3249 8.28856C2.34219 8.22948 2.34768 8.16757 2.34105 8.10637C2.33442 8.04517 2.3158 7.98587 2.28625 7.93187L1.46375 8.38187ZM1.71875 5.71062C1.71875 4.36687 2.47812 3.23937 3.515 2.76499C4.5225 2.30437 5.87625 2.42624 7.1625 3.76249L7.8375 3.11312C6.3125 1.52749 4.54 1.26562 3.125 1.91249C1.74125 2.54562 0.78125 4.01562 0.78125 5.71062H1.71875ZM5.31063 12.1875C5.63125 12.44 5.975 12.7087 6.32312 12.9125C6.67125 13.1162 7.06875 13.2812 7.5 13.2812V12.3437C7.30625 12.3437 7.07875 12.2687 6.79625 12.1031C6.51312 11.9381 6.22 11.7106 5.89125 11.4512L5.31063 12.1875ZM9.68937 12.1875C10.5806 11.4844 11.7206 10.6794 12.6144 9.67249C13.525 8.64749 14.2188 7.37687 14.2188 5.71062H13.2812C13.2812 7.08437 12.7188 8.14249 11.9137 9.04999C11.0919 9.97499 10.0563 10.7044 9.10875 11.4512L9.68937 12.1875ZM14.2188 5.71062C14.2188 4.01562 13.2594 2.54562 11.875 1.91249C10.46 1.26562 8.68875 1.52749 7.1625 3.11249L7.8375 3.76249C9.12375 2.42687 10.4775 2.30437 11.485 2.76499C12.5219 3.23937 13.2812 4.36624 13.2812 5.71062H14.2188ZM9.10875 11.4512C8.78 11.7106 8.48688 11.9381 8.20375 12.1031C7.92063 12.2681 7.69375 12.3437 7.5 12.3437V13.2812C7.93125 13.2812 8.32875 13.1156 8.67688 12.9125C9.02563 12.7087 9.36875 12.44 9.68937 12.1875L9.10875 11.4512ZM5.89125 11.4512C5.39375 11.0594 4.88812 10.6844 4.37562 10.2625L3.77938 10.9875C4.29813 11.4144 4.84687 11.8219 5.31063 12.1875L5.89125 11.4512ZM2.28625 7.93249C1.9097 7.25278 1.71428 6.48765 1.71875 5.71062H0.78125C0.78125 6.73437 1.04375 7.61374 1.46375 8.38187L2.28625 7.93249Z" fill="white"/>
</svg>
