<svg width="23" height="23" viewBox="0 0 23 23" fill="none" xmlns="http://www.w3.org/2000/svg">
<path d="M11.4998 5.27082L10.9823 5.76915C11.0494 5.83872 11.1298 5.89405 11.2187 5.93184C11.3076 5.96963 11.4032 5.98911 11.4998 5.98911C11.5965 5.98911 11.6921 5.96963 11.781 5.93184C11.8699 5.89405 11.9503 5.83872 12.0173 5.76915L11.4998 5.27082ZM6.70913 15.7358C6.56171 15.6146 6.37217 15.5569 6.18221 15.5754C5.99224 15.5939 5.81741 15.6871 5.69617 15.8345C5.57493 15.9819 5.51722 16.1715 5.53573 16.3615C5.55425 16.5514 5.64746 16.7262 5.79488 16.8475L6.70913 15.7358ZM2.24425 12.8522C2.28956 12.935 2.35073 13.0081 2.42428 13.0672C2.49783 13.1264 2.58231 13.1705 2.6729 13.197C2.76349 13.2236 2.85842 13.232 2.95226 13.2218C3.04611 13.2116 3.13703 13.1831 3.21984 13.1378C3.30265 13.0925 3.37572 13.0313 3.43489 12.9578C3.49406 12.8842 3.53816 12.7997 3.56468 12.7091C3.5912 12.6185 3.59961 12.5236 3.58945 12.4298C3.57928 12.3359 3.55073 12.245 3.50542 12.1622L2.24425 12.8522ZM2.63525 8.75628C2.63525 6.69586 3.79963 4.96703 5.3895 4.23965C6.93434 3.53336 9.01009 3.72024 10.9823 5.76915L12.0173 4.77344C9.679 2.34215 6.96117 1.94061 4.7915 2.93249C2.66975 3.90328 1.19775 6.15728 1.19775 8.75628H2.63525ZM8.1428 18.6875C8.63442 19.0747 9.1615 19.4867 9.6953 19.7992C10.2291 20.1116 10.8386 20.3646 11.4998 20.3646V18.9271C11.2028 18.9271 10.8539 18.8121 10.4208 18.5581C9.98663 18.3051 9.53717 17.9563 9.03309 17.5586L8.1428 18.6875ZM14.8569 18.6875C16.2235 17.6094 17.9715 16.375 19.3419 14.8312C20.7382 13.2595 21.8019 11.3112 21.8019 8.75628H20.3644C20.3644 10.8627 19.5019 12.4852 18.2676 13.8767C17.0074 15.295 15.4194 16.4134 13.9666 17.5586L14.8569 18.6875ZM21.8019 8.75628C21.8019 6.15728 20.3309 3.90328 18.2082 2.93249C16.0385 1.94061 13.3226 2.34215 10.9823 4.77249L12.0173 5.76915C13.9896 3.72119 16.0653 3.53336 17.6102 4.23965C19.2 4.96703 20.3644 6.6949 20.3644 8.75628H21.8019ZM13.9666 17.5586C13.4625 17.9563 13.013 18.3051 12.5789 18.5581C12.1448 18.8111 11.7969 18.9271 11.4998 18.9271V20.3646C12.1611 20.3646 12.7706 20.1106 13.3044 19.7992C13.8391 19.4867 14.3653 19.0747 14.8569 18.6875L13.9666 17.5586ZM9.03309 17.5586C8.27025 16.9577 7.49496 16.3827 6.70913 15.7358L5.79488 16.8475C6.5903 17.502 7.43171 18.1269 8.1428 18.6875L9.03309 17.5586ZM3.50542 12.1632C2.92805 11.1209 2.6284 9.94773 2.63525 8.75628H1.19775C1.19775 10.326 1.60025 11.6744 2.24425 12.8522L3.50542 12.1632Z" fill="black"/>
</svg>
