<svg width="12" height="12" viewBox="0 0 12 12" fill="none" xmlns="http://www.w3.org/2000/svg">
<path d="M3.96971 1.22691C3.82911 1.36756 3.75012 1.55829 3.75012 1.75716C3.75012 1.95604 3.82911 2.14677 3.96971 2.28741L7.68221 5.99991L3.96971 9.71241C3.83309 9.85387 3.7575 10.0433 3.75921 10.24C3.76091 10.4366 3.83979 10.6247 3.97885 10.7638C4.1179 10.9028 4.30601 10.9817 4.50266 10.9834C4.69931 10.9851 4.88876 10.9095 5.03021 10.7729L9.27296 6.53016C9.41357 6.38952 9.49255 6.19879 9.49255 5.99991C9.49255 5.80104 9.41357 5.61031 9.27296 5.46966L5.03021 1.22691C4.88957 1.08631 4.69884 1.00732 4.49996 1.00732C4.30109 1.00732 4.11036 1.08631 3.96971 1.22691Z" fill="#C8F6D1"/>
</svg>
